<svg xmlns="http://www.w3.org/2000/svg" xmlns:xlink="http://www.w3.org/1999/xlink" preserveAspectRatio="xMidYMid" width="49.25" height="49.255" viewBox="0 0 49.25 49.255">
  <defs>
    <style>
      .cls-1 {
        fill: #000;
        filter: url(#color-overlay-1);
        fill-rule: evenodd;
      }
    </style>

    <filter id="color-overlay-1" filterUnits="userSpaceOnUse">
      <feFlood flood-color="#fff"/>
      <feComposite operator="in" in2="SourceGraphic"/>
      <feBlend in2="SourceGraphic" result="solidFill"/>
    </filter>
  </defs>
  <path d="M24.620,49.249 C11.021,49.249 -0.005,38.224 -0.005,24.624 C-0.005,11.024 11.021,0.001 24.620,0.001 C38.219,0.001 49.244,11.024 49.244,24.624 C49.244,38.224 38.219,49.249 24.620,49.249 ZM37.884,22.253 L37.884,16.788 C37.884,13.936 35.563,11.615 32.710,11.615 L16.285,11.615 C13.433,11.615 11.113,13.936 11.113,16.788 L11.113,22.253 L11.113,33.213 C11.113,36.065 13.433,38.386 16.285,38.386 L32.710,38.386 C35.563,38.386 37.884,36.065 37.884,33.213 L37.884,22.253 ZM32.710,35.778 L16.285,35.778 C14.871,35.778 13.721,34.628 13.721,33.213 L13.721,22.253 L17.717,22.253 C17.372,23.103 17.179,24.028 17.179,25.001 C17.179,29.036 20.461,32.321 24.498,32.321 C28.535,32.321 31.819,29.036 31.819,25.001 C31.819,24.028 31.623,23.103 31.278,22.253 L35.276,22.253 L35.276,33.213 C35.276,34.628 34.125,35.778 32.710,35.778 ZM30.248,14.714 L34.195,14.700 L34.785,14.698 L34.785,15.288 L34.785,19.235 L30.263,19.251 L30.248,14.714 ZM24.498,29.712 C21.901,29.712 19.786,27.599 19.786,25.001 C19.786,23.975 20.119,23.026 20.678,22.253 C21.535,21.067 22.925,20.288 24.498,20.288 C26.071,20.288 27.462,21.067 28.319,22.253 C28.877,23.026 29.211,23.975 29.211,25.001 C29.211,27.599 27.096,29.712 24.498,29.712 Z" class="cls-1"/>
</svg>
