<?xml version="1.0" encoding="utf-8"?>
<!-- Generator: Adobe Illustrator 19.1.0, SVG Export Plug-In . SVG Version: 6.00 Build 0)  -->
<svg version="1.1" id="Layer_1" xmlns="http://www.w3.org/2000/svg" xmlns:xlink="http://www.w3.org/1999/xlink" x="0px" y="0px"
	 viewBox="0 0 49.2 49.2" style="enable-background:new 0 0 49.2 49.2;" xml:space="preserve">
<style type="text/css">
	.st0{fill:#FFFFFF;}
</style>
<g>
	<g>
		<path class="st0" d="M34.8,19.2v-3.9v-0.6l-0.6,0l-3.9,0l0,4.5L34.8,19.2z M24.5,29.7c2.6,0,4.7-2.1,4.7-4.7c0-1-0.3-2-0.9-2.7
			c-0.9-1.2-2.2-2-3.8-2c-1.6,0-3,0.8-3.8,2C20.1,23,19.8,24,19.8,25C19.8,27.6,21.9,29.7,24.5,29.7z M24.6,0C11,0,0,11,0,24.6
			c0,13.6,11,24.6,24.6,24.6c13.6,0,24.6-11,24.6-24.6C49.2,11,38.2,0,24.6,0z M37.9,22.3v11c0,2.9-2.3,5.2-5.2,5.2H16.3
			c-2.9,0-5.2-2.3-5.2-5.2v-11v-5.5c0-2.9,2.3-5.2,5.2-5.2h16.4c2.9,0,5.2,2.3,5.2,5.2V22.3z M31.8,25c0,4-3.3,7.3-7.3,7.3
			S17.2,29,17.2,25c0-1,0.2-1.9,0.5-2.7h-4v11c0,1.4,1.2,2.6,2.6,2.6h16.4c1.4,0,2.6-1.2,2.6-2.6v-11h-4C31.6,23.1,31.8,24,31.8,25z
			"/>
	</g>
</g>
</svg>
