<?xml version="1.0" encoding="utf-8"?>
<!-- Generator: Adobe Illustrator 19.1.0, SVG Export Plug-In . SVG Version: 6.00 Build 0)  -->
<svg version="1.1" id="Layer_1" xmlns="http://www.w3.org/2000/svg" xmlns:xlink="http://www.w3.org/1999/xlink" x="0px" y="0px"
	 viewBox="0 0 98.9 97.1" style="enable-background:new 0 0 98.9 97.1;" xml:space="preserve">
<style type="text/css">
	.st0{fill:#FFFFFF;}
</style>
<path class="st0" d="M53,49.9C53,49.9,53,49.9,53,49.9C52.9,49.8,53,49.8,53,49.9z M21.4,50.2L21.4,50.2
	C21.4,50.1,21.3,49.9,21.4,50.2z M38.9,48c0,0.2,0.2,2.5,2.7,2.5c1.4,0,2.8-0.1,4.2,0c1.4,0,2.7,0,4.1,0h1.4c0.5,0,0.3-2.2,0.3-2.6
	c0-2.3,0-4.5,0-6.8v-0.6c0-0.3,0.1-0.6,0.1-0.9c0-0.1,0.1-0.7,0.1-0.7c0-0.4-0.2-0.4-0.6-0.5c-0.5-0.1-1-0.3-1.5-0.4
	c-0.9-0.2-1.8-0.5-2.7-0.7c-0.5-0.1-0.3,0.1-0.4,0.5c0,0.2,0,0.3,0,0.5c-0.2,0.8,0,1.8,0,2.6c0,2,0,4,0,6c-0.7-0.1-1.6,0-1.9-0.7
	c-0.4-0.8-0.3-1.9-0.3-2.8c0-2.3,0-4.6,0-6.8c-1-0.1-2.1-0.5-3.1-0.8c-0.5-0.1-1-0.2-1.4-0.4c-0.4-0.1-0.9-0.4-0.9,0.2
	c0,1.6-0.1,3.2-0.1,4.8c0,1.9,0,3.9,0,5.8C38.9,47,38.8,47.5,38.9,48z M77.1,51.4h-5c0,1.7,0,3.6,0,5.3c0.6,0,1.2-0.2,1.8-0.4
	c0.5-0.2,0.3-1.4,0.3-1.8c0.3,0,0.7-0.1,0.9,0.2c0.2,0.2,0.3,0.7,0.3,1.1c0.4,0,1.7-0.4,1.7-0.5c0-0.3,0-0.9-0.2-1.1
	c-0.6-0.6-0.6,0,0.1-0.8C77,53.4,77.2,51.4,77.1,51.4z M75.5,53.1c-0.3,0.4-0.9,0.5-1.4,0.5v-0.8c0-0.2,0.7-0.2,0.9-0.2
	C75.4,52.7,75.8,52.6,75.5,53.1z M53,49.9c0.2,0.2,0.3,0.3,0.4,0.5c0.4,0.1,0.8,0,1.2,0c1,0,8.5,0.4,8.5-0.2c0.1-0.5,0.1-1.3,0-1.8
	c-0.1-0.3-0.5-0.7-0.7-1c-0.3-0.4-0.7-0.8-1.1-1.2c-0.4-0.4-0.5-0.9-1.1-0.9h-1.6c-0.2,0-0.5,0-0.7,0c-0.3,0-0.2,0.5-0.2,0.7
	c0,0.4-0.1,0.4,0.3,0.5c0.3,0,0.5,0,0.8,0.1c0.4,0.1,0.7,0,0.8,0.4c0.1,0.3,0.1,0.7,0.1,1.1c-0.3,0.3-1.1,0.1-1.5,0
	c-0.4-0.1-1-0.1-1.2-0.4c-0.2-0.2-0.1-0.8-0.1-1.1c0-0.5,0-1,0-1.5c0-0.3-0.1-1,0.2-1.3c0.7-0.6,1.7,0,2.4,0.2c0.3,0,0.7,0.3,1,0.2
	c0.4-0.2,0.9-0.5,1.3-0.7c0.4-0.3,2.3-1.4,2.4-1.7c-2-0.5-4-1-6-1.5c-1-0.2-3.5-0.9-3.9-1c-0.2,0-0.8,0.2-0.9,0.3
	c-0.5,0.4-0.6,1.1-0.6,1.7c0,1,0,2,0,3C52.6,45.2,52.4,49.1,53,49.9C53,49.8,53.1,50,53,49.9z M61.8,44.8c-0.2,0.1-0.3,0.1-0.4,0.3
	c0.9,0.9,1.7,2,2.5,3c0.4,0.5,0.8,1,1.2,1.5c0.1,0.2,1.2,1.5,1.4,1.4c0.1-0.4-0.1-0.8,0.5-0.8c0.8-0.1,1.6,0,2.4,0
	c1,0,1.9,0.1,2.9,0.1c0.6,0,0.8,0.2,0.8-0.4c0,0,0.2-4.5,0-5.1c-0.6,0-1.2-0.2-1.8-0.3c-0.8-0.2-1.6-0.4-2.3-0.6
	c-0.7-0.2-1.4-0.5-2.2-0.7c-0.2-0.1-0.4-0.1-0.7-0.3c-0.2-0.1,0-0.5-0.2-0.7c-0.3,0-0.5,0.3-0.7,0.4c-0.4,0.2-0.8,0.5-1.1,0.7
	C63.4,43.8,62.6,44.3,61.8,44.8L61.8,44.8z M61.8,44.8C61.8,44.8,61.8,44.8,61.8,44.8L61.8,44.8z M61.9,44.7
	C61.9,44.7,61.9,44.7,61.9,44.7L61.9,44.7z M80.5,50.4c0.3-0.3,0.3-0.1,0.3-0.6v-1.3c0-0.4,0-0.7,0-1c0-0.5-0.2-0.4-0.6-0.5
	c-0.3-0.1-0.7-0.2-1-0.3c0,1.2,0,2.5,0,3.7C79.6,50.4,80.1,50.4,80.5,50.4C80.4,50.4,80.6,50.3,80.5,50.4z M77.7,50.4
	c0.2,0,0.4,0,0.5,0c0-0.4,0-0.8,0-1.2c0-0.6,0-1.3,0-1.9c0-0.2,0.2-1-0.2-1c-0.5,0-1-0.3-1.5-0.4v2.7c0,0.6,0,1.2,0,1.7
	C76.5,50.5,77.4,50.4,77.7,50.4z M82.6,49.9v-2.3c-0.3-0.1-0.7-0.1-1-0.3c0,1-0.1,2-0.1,3h1C82.7,50.4,82.6,50,82.6,49.9z
	 M73.9,49.7C73.9,49.7,73.9,49.7,73.9,49.7C73.9,49.4,73.9,49.7,73.9,49.7z M74.2,50.4c0.5,0,1,0.1,1.4,0c0-0.1,0-1.1,0-1.3v-3.3
	c0-0.4-1.3-0.7-1.6-0.7c0,1.6-0.1,3.2-0.1,4.7c0,0,0,0,0,0C73.9,50.2,73.7,50.4,74.2,50.4z M83.2,52.5c0.2,0,0.2-1.1,0-1.1
	c-2.1-0.1-3.8-0.1-5.5,0c0.1,0.6,0,1.2,0,1.8c0,0.3,0,0.7,0.1,1c0.1,0.2,0,1.1,2.5,0.3c0.6-0.2,1.3-0.4,1.8-0.5
	c0.3-0.1,0.7-0.2,1-0.3c0-0.2,0.1-0.4,0.1-0.5c-0.5,0.1-2.3,0.5-2.9,0.6c-0.2,0-0.5,0.1-0.5-0.2c0-0.3,0.3-0.1,0.5-0.2
	c0.5,0,0.4-0.2,0.4-0.6c-0.2,0-0.4,0-0.6,0c-0.4,0-0.3,0-0.3-0.4C80.7,52.5,82.3,52.4,83.2,52.5z M78.7,52.4
	C78.8,52.4,78.8,52.4,78.7,52.4C78.8,52.5,78.8,52.5,78.7,52.4z M21.4,48.8c0,0.4-0.1,0.9,0,1.4c0,0,0,0,0,0c0,0-0.1,0.1,0,0.2
	c0.1,0.4,4.6,0.2,4.9,0.2c1.6,0,3.1,0,4.7,0c1.7,0,3.3,0.1,5,0c2.2-0.1,1.6-2.3,1.6-3.9c0-0.9,0.1-1.8,0-2.7c0-0.4-0.1-0.7-0.3-1
	c-0.2-0.3-0.6-0.3-0.8-0.6c1-0.2,0.7-1.2,0.9-2c0.2-0.9,0-1.9,0-2.8c0-0.4,0.2-0.6,0-1c-0.1-0.4-0.2-0.9-0.5-1.3
	c-0.5-0.6-1.7-0.7-2.4-0.9c-2.2-0.5-4.4-1.2-6.6-1.8c-1.1-0.3-2.2-0.6-3.2-0.9c-0.6-0.2-1.2-0.3-1.8-0.5c-0.4-0.1-1-0.4-1.4-0.4
	c-0.1,0.2,0,0.7,0,0.9c0,0.5,0,1,0,1.4c0,0.5,0,1,0,1.5c0,1.1,0,2.1,0,3.2c0,1.9,0,3.8,0,5.7c0,1.1,0,2.2,0,3.3
	C21.4,47.6,21.4,48.2,21.4,48.8z M29.1,36.3c0.6,0.1,1.5,0.3,1.5,1v1.8c0,0.7-2.1,0.4-2.1,0.1c0-0.4,0-0.7,0-1.1
	c0-0.7-0.1-1.3-0.1-1.9C28.7,36.1,28.9,36.2,29.1,36.3C29,36.2,29.2,36.3,29.1,36.3z M28.5,44.8C28.5,45.1,28.5,44,28.5,44.8
	c0-0.8,0-1.5,0-2.3c0.6,0.1,1.3,0.1,1.8,0.5c0.5,0.4,0.3,2.3,0.2,2.5c-0.2,0.6-1.6,0.5-2,0.5C28.5,45.5,28.5,45.1,28.5,44.8z
	 M32.5,56.4c-0.5,0-0.9-0.2-0.9,0.4c0,0.3,0,0.7,0,1c0,3.3,0,6.5,0,9.8c0.5,0,1.1-0.3,1.6-0.4c0.4-0.1,1.2-0.4,1.2-0.4
	c0,0,0-0.4,0-0.4c0.1-0.7,0.1-1.4,0.1-2.1c-0.4,0-0.9,0.3-1.3,0.2c-0.3-0.1-0.2-1.2-0.3-1.5c0-0.8,1.5-0.4,1.5-0.6
	c0-0.2,0.1-1,0-1.4c-0.3-0.1-0.7,0-1.1-0.1c-0.3-0.1-0.3-0.5-0.3-0.8c0-0.3,0-0.6,0-0.9c0-0.4,0.7-0.2,0.9-0.2
	c0.3,0,0.5,0.1,0.6-0.2c0-0.3,0-0.5,0.1-0.8c0-0.3,0.2-1.4,0-1.6H32.5z M29.7,53.1C29.7,53.1,30.2,53.1,29.7,53.1L29.7,53.1z
	 M21.4,52.8L21.4,52.8C21.3,52.8,21.3,52.7,21.4,52.8z M29.4,56.4c-0.6,0-0.5,0-0.5,0.6c0,0.8,0,1.7,0,2.5c0,0.3,0.2,0.9,0,1.2
	c-0.2,0.3-0.9,0-1.2,0c-0.3,0-0.2-3.9-0.2-4.4h-4.4c-0.5,0-1.1,0-1.7,0c-0.4,0-0.2,1.6-0.2,2c0,0.3-0.1,0.6,0.1,0.8
	c0.4,0.1,0.8,0,1.2,0c0,2.5,0,4.9,0,7.4v1.5c0,0.3-0.4,2.2,0.7,1.8c0.4-0.2,1-0.3,1.5-0.4c-0.1-0.8,0-1.7,0-2.5c0-1.3,0-2.6,0-3.8
	c0-1.2,0-2.4,0-3.6c0-0.5,0.3-0.3,0.7-0.3c0.4,0,0.3,0.6,0.3,0.9c0,1,0,2,0,2.9v6.2c0.6-0.2,1.2-0.3,1.8-0.5c0,0,0-0.2,0-0.3v-3.7
	c0-0.2,0-0.3,0-0.5c0-0.3-0.1-1.1,0-1.4c0.1-0.2,0.6-0.2,0.7-0.2c0.5,0,0.7,0,0.7,0.5c0,0.6,0,1.2,0,1.8v2.1c0,0.4,0.1,0.9,0,1.3
	c0.2-0.1,0-0.2,0.3-0.2c0.3,0,0.5-0.2,0.8-0.2c0.4-0.1,0.8,0.1,0.8-0.5c0-1.8,0-3.5,0-5.3c0-1.2,0-2.4,0-3.6c0-0.2-0.1-2.1,0-2.1
	C30.9,56.3,29.7,56.4,29.4,56.4z M21.4,52.8L21.4,52.8c0.3,0.2,0.9,0.1,1.2,0.1c0.4,0,0.4-0.1,0.4,0.3c0,0.4,0,0.8,0,1.2
	c0,0.2-0.1,1.1,0.2,1.1h0.9c0.5,0,1.1,0.1,1.6,0c0.4,0,0.1-0.6,0.2-0.8c0.1-0.6,0.1-1.2,0.1-1.8c0.4,0,1.3-0.2,1.3,0.2
	c0,0.5,0,1,0,1.5c0,0.5-0.2,0.9,0.3,0.9h6.5c0.3,0,0.5,0.1,0.5-0.2c0.2-0.9,0-1.9,0-2.8c0-0.3,0.1-0.6-0.2-0.8
	c-0.2-0.2-0.7-0.2-1.1-0.2c-0.9,0-1.8,0-2.7,0c-1.2,0-2.4,0-3.6,0h-4.8c-0.5,0-0.7-0.1-0.9,0.5C21.2,52.1,21.2,52.6,21.4,52.8z
	 M29.7,53.1c0,0,1.5,0,2.2,0.1c0.3,0,0.4-0.1,0.4,0.2c0,0.2,0,0.5,0,0.7c0,0.2-1.4,0.2-1.7,0.2c-0.3,0-0.6,0-0.9-0.1
	C29.5,54.1,29.7,53,29.7,53.1z M21.4,52.8C21.4,52.8,21.4,52.8,21.4,52.8L21.4,52.8C21.4,52.8,21.4,52.8,21.4,52.8z M71.1,51.5
	c0,0-1.2,0-1.3,0h-0.6c-0.2,0-0.1,1.2-0.2,1.4c-0.2,0.9,0.1,1.9,0,2.8c0,0.2-0.8,0.3-1,0.3c-0.7,0-0.5-0.5-0.5-1
	c0-1.1,0.2-2.4,0-3.5c-0.1-0.1-0.5,0-0.6,0h-5.2c-0.8,0-1.6,0-2.5,0c-0.4,0-0.7-0.2-0.7,0.3c0,0.6,0,1.2,0,1.8
	c0,0.5,0.3,0.3,0.7,0.3c0.3,0,0.6,0,0.8,0c0.8-0.1,0.6,1,0.6,1.5c0,0.6,0,1.2,0,1.7c0,0.9,0,1.8,0,2.6c0.6-0.2,1.3-0.3,1.9-0.5
	c0.4-0.1,0.3-0.5,0.3-0.8c-0.1-1.1,0-2.2,0-3.2c0-0.4-0.2-1.3,0.4-1.3c0.3,0,1.4-0.2,1.4,0.3c0,0.3,0,0.6,0,0.9
	c0,0.8-0.2,1.9,0.1,2.6c0.5,1,1.8,0.4,2.6,0.3c1.1-0.3,2.2-0.6,3.3-0.9c0.5-0.2,0.3-2.4,0.3-2.9V51.5z M58.5,57
	c-0.3-1-0.4-2.1-0.8-3.1c-0.3-0.8-0.6-1.5-0.6-2.4c-0.1-0.1-0.7,0-0.8,0h-2.8c-0.6,0-0.4,0.2-0.6,0.7c-0.1,0.3-0.8,1.8-0.7,1.9
	c-0.1,0.6-0.4,1.2-0.6,1.8c-0.3,0.8-0.7,1.6-1,2.5c-0.3,0.7-0.3,1.3-1,1.5c-0.8,0.2-1.5,0.4-2.3,0.6c-1,0.3-0.6-0.8-0.6-1.4
	c0.7,0,1.5,0,2.2,0c0.8,0,0.5-2.1,0.6-2.6c-0.7,0-2.1,0.2-2.7-0.1c0-0.1-0.2-1.7,0.2-1.8c0.8-0.2,1.8,0,2.6,0c0.5,0,1.6,0.3,1.8-0.3
	c0.2-0.8,0.7-1.7,0.7-2.6c-3,0-5.9-0.1-8.9,0c0.2,1,0.1,2.2,0.1,3.3v2.3c0,1.8,0.1,3.7,0,5.5c0,1.1,0.4,1.1,1.3,1.3
	c0.3,0.1,0.8,0.1,1.1-0.1c0.2,0,5.9-1.7,7-1.9c0.5-0.1,0.6-1.3,0.7-1.7c0.1-0.3,0.2-1.2,0.4-1.4c0.6,0,1.3,0,1.9,0c0,0,0.6,0,0.7,0
	c0.1,0.3,0.1,0.6,0.2,0.8c0.1,0.4,0,1.2,0.5,1.1c0.6-0.1,1.1-0.3,1.7-0.5c0.3-0.1,1.1-0.1,0.8-0.5L58.5,57z M54.2,56.4
	c0-0.4,0.3-0.8,0.4-1.2c0.1-0.4,0.2-0.8,0.3-1.2c0.2,0.1,0.2,0.9,0.2,1.1c0.1,0.4,0.1,0.9,0.3,1.3C55.1,56.4,54.7,56.4,54.2,56.4z
	 M39.1,60.4C39.1,60.4,39.1,60.4,39.1,60.4C39,60.4,39,60.4,39.1,60.4z M29.1,36.3C29.1,36.3,29.1,36.3,29.1,36.3
	C29.1,36.3,29.1,36.3,29.1,36.3z M21.4,52.8C21.4,52.8,21.4,52.8,21.4,52.8L21.4,52.8z M42.4,52.7c0-0.4-0.1-0.8-0.1-1.2
	c-1.7,0-3.4,0-5.2,0c-0.4,0-1.8-0.2-1.8,0.4c0,0.4,0,0.8,0,1.2c-0.1,1.3,0,2.6,0,3.9v6c0,0.7,0,1.4,0,2c0,0.1,0.1,1.3,0.1,1.3
	c0.4,0.4,1.4-0.1,1.8-0.2c0.4-0.1,1.9-0.3,1.8-0.8c0,0,0-1.4,0-1.9c0-0.7,0-1.5,0-2.2c0-0.7,0-1.3,0-2c0-0.5,1.4-0.4,1.8-0.4
	c0.5,0,1,0,1.4,0c-0.1-0.8,0-1.7,0-2.5c-1,0-2.1,0-3.1,0c-0.4,0-0.2-1.3-0.2-1.7c0.9,0.1,1.8,0,3.2-0.1c0.4,0,0.2-0.4,0.3-0.8
	C42.4,53.3,42.5,53,42.4,52.7z"/>
<g>
	<path class="st0" d="M32.7,94.5c-0.7-1.2-0.9-2.5-0.6-3.8c0.3-1.1,1-2,1.9-2.6L33.6,87l2.1-1l0.6,1.1c0.8-0.1,1.6-0.1,2.4,0.1
		c1.4,0.4,2.5,1.2,3.3,2.4c0.7,1.2,0.9,2.5,0.6,3.8c-0.4,1.3-1.2,2.3-2.5,3c-1.3,0.7-2.6,0.8-4,0.4C34.6,96.5,33.5,95.7,32.7,94.5z
		 M39.7,90.8c-0.4-0.6-0.9-1-1.6-1.2c-0.2-0.1-0.4-0.1-0.6-0.1l0.7,1.4l-2.1,1l-0.7-1.4c-0.2,0.2-0.4,0.6-0.5,1
		c-0.2,0.7-0.1,1.4,0.3,2c0.4,0.7,0.9,1.1,1.6,1.3s1.4,0.1,2-0.2s1.1-0.9,1.2-1.6C40.1,92.1,40,91.4,39.7,90.8z"/>
	<path class="st0" d="M27.5,93.7l-2.3-1.4l2.7-4.5c0.8-1.4,0.6-2.2-0.3-2.8c-0.9-0.6-1.8-0.4-2.6,1l-2.7,4.5L20,89.2l2.9-4.7
		c0.7-1.2,1.7-1.9,2.7-2.1s2.2,0,3.3,0.7c1.1,0.7,1.8,1.5,2.1,2.6c0.3,1.1,0.1,2.2-0.6,3.4L27.5,93.7z"/>
	<path class="st0" d="M25,80.9L15.3,85l-1.7-1.7l4.1-9.7l2,2l-0.5,1.3l2.6,2.7l1.3-0.5L25,80.9z M19.8,80.4l-1.7-1.7l-1.3,3
		L19.8,80.4z"/>
	<path class="st0" d="M17.3,72.7l-8.3,5.2l-1.4-2.3l6.2-3.9l-2-3.2l2-1.3L17.3,72.7z"/>
	<path class="st0" d="M13.5,66.1l-9,3.8l-1-2.4l9-3.8L13.5,66.1z"/>
	<path class="st0" d="M11.3,60.1l-7.1,1.8l0.6,2.6L2.4,65l-1.9-7.6l2.3-0.6l0.6,2.5l7.1-1.8L11.3,60.1z"/>
	<path class="st0" d="M9.8,51.3l-3.5,0l-6.2,3.8l0-2.9L3.9,50L0,47.9l0-2.9l6.4,3.6l3.5,0L9.8,51.3z"/>
	<path class="st0" d="M6.1,28.9l0.8,2.2c-0.7,0.3-1.3,0.9-1.6,1.7c-0.3,0.7-0.2,1.4,0.1,2c0.3,0.7,0.8,1.1,1.5,1.4
		c0.7,0.3,1.4,0.2,2-0.1c0.6-0.3,1.1-0.8,1.3-1.5c0.3-0.8,0.3-1.5-0.1-2.2l-0.6-0.2l-0.9,2.4l-2.1-0.8l1.6-4.5l3.7,1.3
		c0.9,1.3,1.2,3.1,0.6,4.8c-0.5,1.4-1.4,2.4-2.6,3.1c-1.2,0.6-2.5,0.7-3.9,0.2c-1.4-0.5-2.3-1.4-2.8-2.7c-0.6-1.3-0.6-2.7-0.1-4
		C3.6,30.5,4.6,29.5,6.1,28.9z"/>
	<path class="st0" d="M14.6,30.3l-8.1-5.4l4-6l2,1.3l-2.5,3.8l1.1,0.8l2.4-3.5l1.8,1.2l-2.4,3.5l1.2,0.8l2.6-3.9l2,1.3L14.6,30.3z"
		/>
	<path class="st0" d="M18.9,23.6l-3.6-9.9l1.8-1.6l9.5,4.5l-2.1,1.9l-1.2-0.6l-2.8,2.5l0.5,1.3L18.9,23.6z M19.6,18.5l1.7-1.6
		l-2.9-1.4L19.6,18.5z"/>
	<path class="st0" d="M27.4,16.3l-4.6-8.6l3.9-2.1c0.9-0.5,1.7-0.6,2.6-0.3c0.9,0.3,1.6,0.8,2,1.6c0.6,1.1,0.5,2.4-0.2,3.2l3.8,2.1
		l-2.7,1.4l-3.2-1.8l0,0l-0.9,0.5l1.4,2.7L27.4,16.3z M27.3,10.5l1.3-0.7c0.6-0.3,0.8-0.9,0.5-1.6c-0.3-0.5-0.8-0.7-1.3-0.5
		l-1.5,0.8L27.3,10.5z"/>
	<path class="st0" d="M41.4,10.5l-1.1-9.7l7-0.8l0.3,2.4l-4.4,0.5l0.2,1.5l4-0.5l0.3,2.2l-4,0.5l0.4,3.6L41.4,10.5z"/>
	<path class="st0" d="M58.4,9.4c-1.2,0.8-2.5,1.2-4,1c-1.5-0.2-2.7-0.8-3.6-2c-0.9-1.1-1.3-2.4-1.1-3.7c0.2-1.4,0.9-2.5,2-3.3
		s2.5-1.2,4-1c1.5,0.2,2.7,0.8,3.6,2c0.9,1.1,1.3,2.4,1.1,3.7C60.3,7.5,59.6,8.6,58.4,9.4z M53,7c0.4,0.6,1,0.9,1.8,1
		c0.7,0.1,1.4-0.1,2-0.5c0.6-0.5,0.9-1,1-1.8c0.1-0.7-0.1-1.4-0.5-2c-0.4-0.6-1-0.9-1.8-1c-0.7-0.1-1.4,0.1-2,0.5
		c-0.6,0.4-0.9,1-1,1.8C52.4,5.8,52.6,6.4,53,7z"/>
	<path class="st0" d="M60.9,11.4l3.7-9l4.1,1.7c0.9,0.4,1.5,1,1.9,1.9c0.4,0.9,0.4,1.7,0,2.6c-0.5,1.2-1.5,1.9-2.6,1.9l0.9,4.3
		l-2.8-1.2L65.5,10l0,0l-0.9-0.4l-1.2,2.8L60.9,11.4z M65.3,7.6l1.4,0.6c0.7,0.3,1.2,0.1,1.5-0.6c0.2-0.6,0-1.1-0.5-1.3l-1.6-0.7
		L65.3,7.6z"/>
	<path class="st0" d="M74.3,18.4l6.9-6.9l2.8,2.8c1.2,1.2,1.8,2.4,1.8,3.7c0,1.3-0.5,2.4-1.6,3.5c-1.1,1-2.2,1.6-3.5,1.5
		c-1.2,0-2.5-0.6-3.7-1.8L74.3,18.4z M77.8,18.6l0.8,0.8c0.8,0.8,1.5,1.2,2.1,1.1c0.6-0.1,1-0.4,1.5-0.9c0.5-0.5,0.8-0.9,0.8-1.5
		c0.1-0.6-0.3-1.3-1.1-2.1l-0.8-0.8L77.8,18.6z"/>
	<path class="st0" d="M81.4,26l8.4-5l3.7,6.2l-2.1,1.2l-2.3-3.9l-1.2,0.7l2.2,3.6l-1.9,1.1L86,26.3l-1.3,0.8l2.4,4l-2,1.2L81.4,26z"
		/>
	<path class="st0" d="M86.7,36.4l8.1-6.7l0.8,2.7l-5,4l6.4,0.5l0.8,2.7l-10.5-0.9L86.7,36.4z"/>
	<path class="st0" d="M89.2,48l9.7,1l-0.2,2.2l-4.7,2.7l4.1,3.6l-0.2,2.2l-9.7-1l0.3-2.5l5.1,0.5l-3.7-3.3l4.3-2.5l-5.1-0.5L89.2,48
		z"/>
	<path class="st0" d="M87.9,59.5l7.5,7.4l-0.9,2.3l-10.5,0l1.1-2.6l1.4,0l1.4-3.5l-1-1L87.9,59.5z M89.4,64.4l-0.9,2.2l3.2,0.1
		L89.4,64.4z"/>
	<path class="st0" d="M85.6,72.4c-0.9,0-1.8,0.4-2.4,1.3c-0.5,0.7-0.6,1.2-0.2,1.5c0.2,0.2,0.5,0.1,0.8-0.1c0.2-0.1,0.3-0.2,0.5-0.4
		c0.3-0.2,0.9-0.7,1.3-1c1.3-0.9,2.5-1,3.6-0.2c0.8,0.5,1.1,1.2,1.2,2.1c0,0.9-0.3,1.7-0.8,2.5c-0.9,1.3-2.1,2-3.4,2L86,77.8
		c0.7-0.1,1.2-0.4,1.7-1c0.4-0.6,0.4-1,0.1-1.2c-0.2-0.2-0.4-0.2-0.7,0c-0.1,0.1-0.3,0.2-0.4,0.3c-0.3,0.2-0.9,0.7-1.4,1.1
		c-1.5,1-2.6,1.1-3.7,0.3c-1.5-1.1-1.8-2.9-0.3-5c0.6-0.9,1.3-1.5,2.1-1.8c0.7-0.3,1.4-0.5,2.1-0.5L85.6,72.4z"/>
	<path class="st0" d="M80,79.5c-0.9-0.2-1.9,0.1-2.6,0.7c-0.6,0.6-0.8,1.1-0.5,1.4c0.2,0.2,0.4,0.2,0.8,0.1c0.2-0.1,0.4-0.2,0.6-0.2
		c0.4-0.2,1-0.5,1.5-0.7c1.5-0.6,2.7-0.4,3.6,0.6c0.6,0.7,0.9,1.4,0.7,2.3s-0.6,1.6-1.3,2.2c-1.2,1.1-2.4,1.5-3.7,1.3l0.3-2.3
		c0.7,0.1,1.3-0.1,1.8-0.6c0.5-0.5,0.6-0.9,0.4-1.2c-0.2-0.2-0.4-0.3-0.7-0.2c-0.2,0.1-0.3,0.1-0.5,0.2c-0.3,0.2-1,0.5-1.6,0.8
		c-1.6,0.7-2.7,0.5-3.6-0.5c-1.3-1.4-1.1-3.2,0.8-4.9c0.8-0.7,1.6-1.2,2.4-1.4c0.8-0.2,1.5-0.2,2.2,0L80,79.5z"/>
	<path class="st0" d="M72.1,81.8l4.9,8.5l-6.2,3.6l-1.2-2.1l3.9-2.3l-0.7-1.2l-3.7,2.1l-1.1-1.9l3.7-2.1L71,85.2l-4,2.3l-1.2-2
		L72.1,81.8z"/>
	<path class="st0" d="M64.5,89.6c-0.7-0.5-1.7-0.7-2.7-0.4c-0.8,0.3-1.2,0.6-1,1.1c0.1,0.3,0.3,0.4,0.7,0.4c0.2,0,0.4,0,0.6,0
		c0.4,0,1.1,0,1.6,0c1.6,0.1,2.6,0.8,3,2c0.3,0.9,0.2,1.7-0.3,2.4s-1.2,1.2-2.1,1.5c-1.5,0.5-2.8,0.4-3.9-0.4l1.2-2
		c0.6,0.4,1.2,0.4,1.9,0.2c0.7-0.2,0.9-0.6,0.8-0.9c-0.1-0.3-0.2-0.4-0.5-0.4c-0.2,0-0.3,0-0.5,0c-0.3,0-1.1,0.1-1.8,0
		c-1.8-0.1-2.7-0.7-3.1-2c-0.6-1.8,0.3-3.3,2.8-4.1c1-0.3,2-0.4,2.8-0.2c0.8,0.2,1.4,0.5,2,0.9L64.5,89.6z"/>
	<path class="st0" d="M52,92.3c0.4,0.4,0.6,0.8,0.6,1.3c0,0.5-0.2,1-0.5,1.4c-0.4,0.4-0.8,0.6-1.3,0.6c-0.5,0-1-0.2-1.4-0.5
		c-0.4-0.4-0.6-0.8-0.6-1.3c0-0.5,0.2-1,0.5-1.4c0.4-0.4,0.8-0.6,1.3-0.6C51.1,91.8,51.6,92,52,92.3z"/>
</g>
</svg>
